<!--?xml version="1.0" standalone="no"?-->
              <svg id="sw-js-blob-svg" viewBox="0 0 100 100" xmlns="http://www.w3.org/2000/svg" version="1.1">
                    <defs> 
                        <linearGradient id="sw-gradient" x1="0" x2="1" y1="1" y2="0">
                            <stop id="stop1" stop-color="rgba(0, 61, 255, 1)" offset="0%"></stop>
                            <stop id="stop2" stop-color="rgba(31, 38.608, 251, 1)" offset="100%"></stop>
                        </linearGradient>
                    </defs>
                <path fill="rgba(0, 61, 255, 1)" d="M24.7,-32.6C32,-28.6,38.1,-21.5,41.5,-13C44.9,-4.5,45.6,5.2,42.5,13.5C39.4,21.7,32.5,28.5,24.7,33.2C17,37.9,8.5,40.7,-0.5,41.4C-9.5,42.1,-19.1,40.8,-25.1,35.5C-31.2,30.2,-33.7,21,-36.8,11.9C-39.9,2.7,-43.6,-6.3,-42.2,-14.6C-40.8,-22.9,-34.2,-30.5,-26.3,-34.3C-18.4,-38.1,-9.2,-38.2,-0.3,-37.8C8.7,-37.4,17.3,-36.6,24.7,-32.6Z" width="100%" height="100%" transform="translate(50 50)" stroke-width="0" style="transition: 0.3s;"></path>
              </svg>